<svg xmlns="http://www.w3.org/2000/svg" viewBox="0 0 1600 1000" preserveAspectRatio="xMidYMid slice">
  <defs>
    <linearGradient id="g1" x1="0%" y1="0%" x2="100%" y2="100%">
      <stop offset="0%" stop-color="#3a2412"/>
      <stop offset="55%" stop-color="#a86b1c"/>
      <stop offset="100%" stop-color="#f0b93f"/>
    </linearGradient>
    <radialGradient id="glow1" cx="75%" cy="30%" r="60%">
      <stop offset="0%" stop-color="#ffdc8a" stop-opacity="0.55"/>
      <stop offset="100%" stop-color="#ffdc8a" stop-opacity="0"/>
    </radialGradient>
  </defs>
  <rect width="1600" height="1000" fill="url(#g1)"/>
  <rect width="1600" height="1000" fill="url(#glow1)"/>
  <g opacity="0.16" fill="#1c130c">
    <circle cx="220" cy="820" r="260"/>
    <circle cx="1420" cy="180" r="320"/>
  </g>
  <g transform="translate(760,360)" opacity="0.9">
    <path d="M0 40 h240 l-18 360 a20 20 0 0 1-20 18 H38 a20 20 0 0 1-20-18 Z" fill="#f6ecd9" opacity="0.14"/>
    <path d="M20 60 h200 l-15 320 H35 Z" fill="#f6ecd9" opacity="0.1"/>
    <path d="M240 90 c70 -10 90 60 30 90 c-30 15 -55 5 -60 -10" stroke="#f6ecd9" stroke-width="10" fill="none" opacity="0.14"/>
  </g>
  <rect width="1600" height="1000" fill="#1c130c" opacity="0.28"/>
</svg>
